<svg width="400" height="400" viewBox="0 0 400 400" fill="none" xmlns="http://www.w3.org/2000/svg">
<path d="M199.766 8.6541L310.183 3.63512C317.678 3.29443 324.734 7.17736 328.456 13.6917L390.02 121.429C393.742 127.942 392.755 136.124 387.592 141.565L322.102 210.585C318.887 213.973 314.753 216.349 310.208 217.423L205 242.269C195.537 244.504 185.837 239.608 182.014 230.667L136.046 123.156C133.052 116.153 133.414 108.167 137.028 101.463L180.565 20.715C184.401 13.6001 191.691 9.02114 199.766 8.6541Z" fill="#EA433B" stroke="black" stroke-width="6"/>
<path d="M141.173 118.637C139.601 115.008 139.766 110.862 141.622 107.37L182.762 29.9298C185.068 25.588 191.331 25.7111 193.465 30.1401L249.524 146.472C251.677 150.94 251.1 156.243 248.037 160.144L194.901 227.809C193.03 230.193 189.29 229.71 188.085 226.928L141.173 118.637Z" fill="#941E14"/>
<path d="M256.277 161.284C258.894 158.013 262.625 155.824 266.757 155.135L376.908 136.776C379.762 136.301 381.569 139.743 379.557 141.822L315.615 207.895C313.841 209.728 311.567 210.999 309.077 211.549L204.405 234.664C201.642 235.274 199.648 232.07 201.416 229.86L256.277 161.284Z" fill="#811810"/>
<path d="M198.203 23.4561C196.294 19.5813 198.982 15.0193 203.296 14.8113L307.618 9.78171C314.431 9.45325 320.844 13.0037 324.182 18.9518L380.753 119.759C382.783 123.374 380.62 127.909 376.534 128.609L273.835 146.191C265.542 147.611 257.303 143.408 253.585 135.861L198.203 23.4561Z" fill="#A22216"/>
<path d="M183.226 58.1068C184.507 56.8493 186.383 56.315 188.118 56.7727C192.739 57.9914 195.041 62.6202 197.144 70.3873C197.785 72.7559 198.15 75.2025 198.177 77.6563C198.267 86.0216 196.811 89.7319 193.673 91.7686C192.186 92.7335 190.267 92.8743 188.698 92.0495C184.352 89.7646 180.598 83.7714 179.562 75.4258C179.099 66.7367 179.842 61.4294 183.226 58.1068Z" fill="white"/>
<path d="M181.765 119.048C182.723 116.527 184.465 113.833 187.161 113.796C192.037 113.729 196.002 121.2 197.567 126.521C199.734 133.89 198.97 141.813 195.197 146.058C194.288 147.08 193.006 147.794 191.64 147.725C188.959 147.589 186.415 145.453 184.027 141.791C182.923 140.098 182.166 138.201 181.661 136.244C179.706 128.664 179.927 123.888 181.765 119.048Z" fill="white"/>
<path d="M185.888 170.803C189.259 168.946 191.65 170.493 194.178 174.38C196.719 178.288 198.142 182.849 198.616 187.487C199.289 194.063 198.418 197.51 196.08 199.902C194.943 201.065 193.31 201.65 191.688 201.535C188.949 201.34 186.736 199.923 184.379 194.935C182.513 190.985 181.587 186.615 181.648 182.247C181.727 176.643 183.043 173.113 185.888 170.803Z" fill="white"/>
<path d="M279.405 186.222C284.286 182.435 289.937 179.657 295.905 178.056C299.359 177.129 301.679 176.927 303.295 177.282C304.568 177.562 305.422 178.802 305.239 180.093C304.779 183.345 300.974 186.709 292.944 191.241C287.004 193.889 283 195.189 277.888 194.898C276.305 194.807 274.497 193.985 274.506 192.4C274.513 190.967 275.677 189.113 279.405 186.222Z" fill="white"/>
<path d="M261.209 101.74C261.791 98.1804 264.553 95.306 268.06 94.4632C272.264 93.4527 275.718 93.9682 279.527 95.5523C282.04 96.5973 284.348 98.1002 286.358 99.9355C292.049 105.134 293.157 109.42 292.679 114.874C292.567 116.142 292.166 117.382 291.403 118.401C287.262 123.928 279.942 125.31 268.613 117.762C262.798 112.757 260.158 108.163 261.209 101.74Z" fill="white"/>
<path d="M278.009 64.0418C279.127 61.6567 281.348 59.8764 283.912 59.2695C287.967 58.3092 292.71 59.3909 296.967 61.7697C299.974 63.4502 302.402 66.0212 304.165 68.9809C307.561 74.6829 307.876 79.3721 304.297 83.2773C303.031 84.6597 301.313 85.571 299.465 85.8901C294.863 86.6847 288.918 85.682 283.698 81.2652C278.046 76.4825 275.409 69.587 278.009 64.0418Z" fill="white"/>
<path d="M291.239 32.3835C292.354 28.4754 296.361 26.212 300.425 26.2655C306.72 26.3483 312.708 29.7482 316.302 34.5499C322.689 43.0841 320.681 50.6083 313.869 53.0414C312.136 53.6601 301.838 55.2839 294.404 46.2287C290.57 41.9492 290.065 36.4951 291.239 32.3835Z" fill="white"/>
<path d="M236.001 31.5642C240.449 30.6302 245.231 31.5039 249.001 34.0435C250.89 35.3165 252.764 37.0067 254.988 39.416C258.486 44.3329 259.279 48.4286 257.775 52.0665C255.871 56.6729 250.402 58.8872 245.487 58.0549C240.962 57.2885 236.366 54.778 232.267 49.2243C229.985 46.1322 228.616 42.2821 229.155 38.4772C229.667 34.87 231.537 32.5017 236.001 31.5642Z" fill="white"/>
<path d="M324.071 94.5341C325.325 89.0508 332.02 86.1688 337.49 87.4796C339.224 87.8952 340.96 88.6264 342.854 89.7303C347.439 92.4037 351.059 96.6745 352.718 101.717C354.153 106.08 353.474 108.572 350.975 110.737C349.981 111.598 348.787 112.2 347.538 112.609C342.119 114.385 337.995 113.443 330.91 107.719C329.592 106.654 328.386 105.438 327.378 104.077C324.446 100.117 323.457 97.2175 324.071 94.5341Z" fill="white"/>
<path d="M16.8956 237.528L101.236 170.903C105.356 167.648 110.322 165.641 115.546 165.118L208.853 155.788C216.52 155.021 223.787 159.36 226.749 166.474L273.217 278.073C277.256 287.772 275.415 298.926 268.473 306.813L199.074 385.658C192.718 392.879 183.051 396.254 173.581 394.558L87.4515 379.126C79.3199 377.669 72.274 372.634 68.262 365.412L11.6828 263.57C6.80228 254.785 9.00964 243.757 16.8956 237.528Z" fill="#EC433A" stroke="black" stroke-width="5"/>
<path d="M19.2595 260.894C17.8149 258.229 19.7446 254.988 22.7762 254.988H108.215C113.166 254.988 117.688 257.8 119.876 262.242L177.238 378.652C179.412 383.064 175.644 388.075 170.802 387.211L84.9949 371.902C81.1004 371.208 77.7341 368.777 75.849 365.299L19.2595 260.894Z" fill="#78160E"/>
<path d="M106.411 175.144C108.735 173.266 111.565 172.125 114.541 171.866L204.813 164.016C206.719 163.85 207.747 166.199 206.333 167.487L123.486 242.96C119.803 246.315 115 248.175 110.017 248.175H24.5423C21.714 248.175 20.4568 244.62 22.6564 242.842L106.411 175.144Z" fill="#B9281D"/>
<path d="M130.151 262.908C127.42 257.344 128.673 250.647 133.23 246.446L212.666 173.215C215.731 170.39 220.673 171.474 222.273 175.324L266.553 281.846C269.011 287.759 267.938 294.551 263.777 299.418L196.195 378.468C193.392 381.746 188.149 381.085 186.249 377.212L130.151 262.908Z" fill="#590F07"/>
<path d="M104.623 185.401C109.945 182.536 113.889 180.703 119.643 179.614C121.927 179.182 124.441 179.017 126.408 180.254C128.796 181.754 127.517 184.153 121.927 188.573C120.473 189.723 118.866 190.678 117.2 191.49C109.978 195.011 105.136 197.309 101.242 197.308C98.8954 197.308 95.9105 195.912 96.326 193.602C96.6681 191.7 99.0626 189.18 104.623 185.401Z" fill="white"/>
<path d="M154.258 183.455C167.517 176.188 171.611 175.522 177.129 176.156C179.989 179.259 177.099 181.721 170.316 186.375C157.75 193.006 152.947 194.17 147.932 192.214C146.889 190.776 146.347 189.945 154.258 183.455Z" fill="white"/>
<path d="M106.083 224.331C113.987 218.961 119.45 216.906 125.253 216.043C128.241 215.598 132.524 216.665 131.767 219.59C131.145 221.995 127.723 224.934 120.681 229.197C109.785 234.338 105.36 235.361 100.73 233.577C98.8143 231.566 98.4396 229.986 106.083 224.331Z" fill="white"/>
<path d="M55.202 226.331C56.9767 224.97 58.9185 223.821 60.9484 222.883C69.9412 218.728 73.9708 218.099 77.2246 218.548C78.622 218.74 80.2654 219.449 80.1368 220.854C79.9302 223.109 76.6601 226.494 70.073 230.657C62.9933 234.119 58.7143 235.568 54.2715 235.667C52.2019 235.712 49.3294 235.117 49.2435 233.049C49.1893 231.745 50.5811 229.873 55.202 226.331Z" fill="white"/>
<path d="M38.4666 276.559C39.1156 273.764 42.0519 272.139 44.8912 272.557C49.8399 273.286 53.5102 276.299 57.0108 280.601C58.6444 282.608 59.974 284.864 60.8767 287.289C63.2313 293.617 61.9705 295.623 58.8807 297.324C54.031 297.35 50.9386 296.806 43.309 289.051C38.8897 283.809 37.678 279.957 38.4666 276.559Z" fill="white"/>
<path d="M71.5328 272.019C76.2774 272.299 79.8058 274.12 86.618 280.779C93.4222 291.858 93.4306 295.864 88.5644 298.783C83.2116 300.243 74.4525 296.837 68.6131 283.698C65.5095 276.727 66.3806 273.931 71.5328 272.019Z" fill="white"/>
<path d="M101.216 273.479C105.01 271.836 108.782 273.835 115.571 279.522C117.691 281.298 119.553 283.393 120.894 285.812C125.081 293.363 124.833 297.707 122.024 300.233C120.685 301.438 118.753 301.657 116.984 301.313C112.816 300.502 107.387 298.181 101.216 289.051C97.9263 282.418 97.4362 276.476 101.216 273.479Z" fill="white"/>
<path d="M72.9926 330.9C79.0185 330.167 82.2238 332.262 89.0511 339.173C94.7566 349.081 94.5766 352.441 90.0244 355.231C84.7649 355.259 82.5363 354.047 75.9124 347.445C69.3337 338.966 68.8664 335.408 72.9926 330.9Z" fill="white"/>
<path d="M99.7284 335.791C100.566 334.4 101.996 333.422 103.602 333.184C106.849 332.701 109.584 333.943 112.623 336.107C116.157 338.623 119.204 341.839 121.347 345.61C124.238 350.698 124.603 354.064 123.11 356.753C122.136 358.506 120.108 359.378 118.103 359.379C114.142 359.38 110.609 357.741 104.623 351.338C98.4062 342.941 97.6852 339.182 99.7284 335.791Z" fill="white"/>
<path d="M131.346 338.338C131.914 337.267 132.984 336.551 134.186 336.391C139.939 335.623 143.68 338.349 149.856 344.526C155.582 350.252 157.399 355.851 155.642 360.776C154.985 362.617 153.166 363.748 151.216 363.881C146.827 364.181 143.002 362.943 136.253 355.718C130.187 347.854 128.831 343.074 131.346 338.338Z" fill="white"/>
<path d="M185.517 333.308C185.05 331.075 184.964 328.769 185.27 326.508C186.246 319.307 188.435 315.946 193.253 314.327C196.032 313.394 199.184 313.322 201.763 314.716C205.246 316.598 206.695 320.103 207.779 325.137C208.526 328.606 208.558 332.24 207.506 335.629C206.583 338.6 205.442 340.755 203.982 342.347C200.631 346.002 194.407 346.943 190.551 343.827C188.278 341.991 186.655 338.76 185.517 333.308Z" fill="white"/>
<path d="M227.572 291.921C226.051 286.923 226.211 281.475 227.693 276.465C228.362 274.201 229.277 272.379 230.636 270.917C234.188 267.095 240.703 266.691 244.709 270.035C247.929 272.724 249.8 277.3 250.608 284.185C249.989 290.621 248.533 294.67 246.113 297.274C242.182 301.503 234.686 301.627 230.652 297.497C229.33 296.144 228.311 294.35 227.572 291.921Z" fill="white"/>
<path d="M196.814 261.522C200.171 258.135 205.731 257.614 209.73 260.211C213.841 262.882 215.656 266.958 216.058 273.479C216.52 282.347 214.442 286.204 210.105 288.994C207.732 290.52 204.819 291.246 202.078 290.582C200.249 290.14 198.568 289.284 197.021 287.738C192.443 283.167 191.568 275.931 192.82 269.584C193.514 266.071 194.804 263.55 196.814 261.522Z" fill="white"/>
<path d="M155.527 271.886C154.277 267.536 154.106 262.883 155.046 258.455C155.978 254.069 157.772 251.069 161.061 248.83C164.283 246.637 168.625 246.386 171.975 248.379C174.292 249.757 176.029 251.667 177.326 254.36C180.557 261.074 180.554 269.508 176.592 275.818C175.194 278.045 173.416 279.613 171.169 280.734C168.503 282.063 165.312 282.132 162.587 280.929C159.281 279.47 156.982 276.951 155.527 271.886Z" fill="white"/>
<path d="M209.732 204.38C218.005 204.286 221.758 209.732 222.384 216.058C223.4 226.315 222.24 231.178 213.625 236.496C207.786 236.496 202.92 235.037 200.487 223.844C200.517 213.305 203.893 204.445 209.732 204.38Z" fill="white"/>
</svg>
